<svg xmlns="http://www.w3.org/2000/svg" style="display: none;">
  <symbol id="icon-instagram" viewBox="0 0 24 24">
    <rect x="3" y="3" width="18" height="18" rx="5" ry="5" fill="none" stroke="currentColor" stroke-width="1.8"/>
    <circle cx="12" cy="12" r="4.2" fill="none" stroke="currentColor" stroke-width="1.8"/>
    <circle cx="17.5" cy="6.5" r="1.2" fill="currentColor"/>
  </symbol>

  <symbol id="icon-youtube" viewBox="0 0 24 24">
    <path d="M21.1 7.5a2.9 2.9 0 0 0-2-2c-1.8-.5-7.1-.5-7.1-.5s-5.3 0-7.1.5a2.9 2.9 0 0 0-2 2A30 30 0 0 0 2.4 12a30 30 0 0 0 .5 4.5 2.9 2.9 0 0 0 2 2c1.8.5 7.1.5 7.1.5s5.3 0 7.1-.5a2.9 2.9 0 0 0 2-2 30 30 0 0 0 .5-4.5 30 30 0 0 0-.5-4.5Z" fill="none" stroke="currentColor" stroke-width="1.8"/>
    <path d="m10 15.5 5-3.5-5-3.5Z" fill="currentColor"/>
  </symbol>

  <symbol id="icon-rss" viewBox="0 0 24 24">
    <path d="M5 18.5a1.5 1.5 0 1 1 0 .01Z" fill="currentColor"/>
    <path d="M4.8 11.2a8 8 0 0 1 8 8" fill="none" stroke="currentColor" stroke-width="1.8" stroke-linecap="round"/>
    <path d="M4.8 5a14.2 14.2 0 0 1 14.2 14.2" fill="none" stroke="currentColor" stroke-width="1.8" stroke-linecap="round"/>
  </symbol>

  <symbol id="icon-github" viewBox="0 0 24 24">
    <path d="M12 3.8a8.8 8.8 0 0 0-2.8 17.2c.4.1.5-.2.5-.4v-1.5c-2.1.5-2.6-.9-2.6-.9-.3-.8-.9-1.1-.9-1.1-.8-.5.1-.5.1-.5.8.1 1.2.8 1.2.8.7 1.2 1.9.9 2.3.7.1-.5.3-.9.5-1.1-1.7-.2-3.6-.9-3.6-4a3.1 3.1 0 0 1 .8-2.2 2.9 2.9 0 0 1 .1-2.2s.7-.2 2.3.8a7.9 7.9 0 0 1 4.2 0c1.6-1 2.3-.8 2.3-.8a2.9 2.9 0 0 1 .1 2.2 3.1 3.1 0 0 1 .8 2.2c0 3.1-1.9 3.8-3.7 4 .3.2.6.8.6 1.5v2.3c0 .2.1.5.5.4A8.8 8.8 0 0 0 12 3.8Z" fill="currentColor"/>
  </symbol>

  <symbol id="icon-globe" viewBox="0 0 24 24">
    <circle cx="12" cy="12" r="8.2" fill="none" stroke="currentColor" stroke-width="1.8"/>
    <path d="M3.8 12h16.4M12 3.8a13.7 13.7 0 0 1 0 16.4M12 3.8a13.7 13.7 0 0 0 0 16.4" fill="none" stroke="currentColor" stroke-width="1.4"/>
  </symbol>

  <symbol id="icon-theme-auto" viewBox="0 0 24 24">
    <path d="M12 5.2v13.6M5.2 12h13.6M7.2 7.2l9.6 9.6M16.8 7.2l-9.6 9.6" fill="none" stroke="currentColor" stroke-width="1.7" stroke-linecap="round"/>
    <circle cx="12" cy="12" r="2.9" fill="none" stroke="currentColor" stroke-width="1.7"/>
  </symbol>

  <symbol id="icon-theme-light" viewBox="0 0 24 24">
    <circle cx="12" cy="12" r="4.1" fill="none" stroke="currentColor" stroke-width="1.8"/>
    <path d="M12 2.9v2.5M12 18.6v2.5M21.1 12h-2.5M5.4 12H2.9M18.4 5.6l-1.8 1.8M7.4 16.6l-1.8 1.8M18.4 18.4l-1.8-1.8M7.4 7.4 5.6 5.6" fill="none" stroke="currentColor" stroke-width="1.6" stroke-linecap="round"/>
  </symbol>

  <symbol id="icon-theme-dark" viewBox="0 0 24 24">
    <path d="M14.8 3.2a8.7 8.7 0 1 0 6 12.6 7.7 7.7 0 1 1-6-12.6Z" fill="none" stroke="currentColor" stroke-width="1.8" stroke-linejoin="round"/>
  </symbol>

  <symbol id="icon-share" viewBox="0 0 24 24">
    <circle cx="6" cy="12" r="2.2" fill="currentColor"/>
    <circle cx="18" cy="6" r="2.2" fill="currentColor"/>
    <circle cx="18" cy="18" r="2.2" fill="currentColor"/>
    <path d="M8 11l7.8-4.2M8 13l7.8 4.2" fill="none" stroke="currentColor" stroke-width="1.7" stroke-linecap="round"/>
  </symbol>
</svg>